<?xml version="1.0" standalone="no"?>
<!DOCTYPE svg PUBLIC "-//W3C//DTD SVG 20010904//EN"
 "http://www.w3.org/TR/2001/REC-SVG-20010904/DTD/svg10.dtd">
<svg version="1.0" xmlns="http://www.w3.org/2000/svg"
 width="601.000000pt" height="601.000000pt" viewBox="0 0 601.000000 601.000000"
 preserveAspectRatio="xMidYMid meet">

<g transform="translate(0.000000,601.000000) scale(0.100000,-0.100000)"
fill="#000000" stroke="none">
<path d="M1547 4826 c-21 -8 -55 -25 -77 -40 -67 -44 -89 -106 -211 -601 -125
-509 -132 -557 -89 -670 19 -49 39 -76 110 -145 48 -47 94 -96 101 -110 11
-20 15 -174 20 -830 6 -879 4 -854 64 -915 61 -61 27 -59 1005 -65 l895 -5 55
-26 c30 -14 85 -49 123 -77 362 -275 888 -209 1156 144 227 300 232 727 12
989 -185 220 -207 283 -192 571 9 186 12 194 125 323 91 105 119 164 124 265
3 71 -3 110 -53 326 -69 298 -160 665 -174 703 -23 60 -72 117 -124 145 l-52
27 -1390 2 c-1152 2 -1397 0 -1428 -11z m578 -158 c-3 -13 -35 -183 -71 -378
-86 -467 -85 -466 -123 -504 l-31 -31 -285 -3 c-157 -2 -285 0 -285 5 0 52
172 788 196 839 19 41 54 73 90 84 16 4 138 9 272 9 l242 1 -5 -22z m715 9
c15 -7 29 -27 35 -47 6 -22 8 -183 5 -437 -5 -369 -6 -404 -23 -420 -16 -16
-47 -18 -347 -21 l-330 -3 -25 25 c-30 30 -30 34 -4 166 11 58 44 235 74 394
30 159 62 300 70 313 9 13 26 28 38 33 36 14 478 12 507 -3z m700 3 c19 -5 48
-20 63 -33 32 -25 42 -65 137 -572 27 -148 53 -283 56 -298 l6 -28 -345 3
c-328 3 -346 4 -367 23 -49 45 -50 50 -50 440 0 394 2 415 52 447 13 9 35 18
49 21 48 9 365 7 399 -3z m776 -13 c57 -30 79 -68 112 -193 29 -108 172 -709
172 -721 0 -3 -133 -3 -295 -1 l-295 3 -26 27 c-25 24 -34 61 -110 445 -46
230 -84 429 -84 442 l0 23 248 -4 c204 -3 252 -7 278 -21z m264 -1087 c0 -19
-38 -85 -62 -107 -66 -62 -209 -89 -312 -59 -48 14 -71 29 -127 85 -38 37 -69
72 -69 79 0 9 68 12 285 12 191 0 285 -3 285 -10z m-2710 -13 c0 -20 -54 -91
-87 -115 -98 -69 -265 -68 -360 4 -29 22 -93 103 -93 118 0 3 122 6 270 6 220
0 270 -3 270 -13z m960 4 c0 -4 -23 -29 -50 -55 -162 -152 -409 -151 -571 1
-27 25 -49 50 -49 54 0 5 151 9 335 9 184 0 335 -4 335 -9z m895 -42 c-127
-128 -329 -163 -486 -84 -53 27 -123 86 -140 117 -9 17 4 18 333 18 l342 0
-49 -51z m-1624 -156 c25 -18 79 -48 120 -68 222 -105 451 -79 682 77 l58 39
88 -51 c289 -167 499 -169 742 -9 l77 50 239 -105 238 -105 3 -215 2 -215 -27
9 c-55 19 -207 40 -283 40 -214 0 -416 -84 -565 -234 -236 -237 -296 -544
-176 -893 17 -48 28 -89 25 -92 -2 -3 -65 -5 -139 -5 -162 -1 -171 4 -185 105
-5 35 -10 341 -10 679 0 338 -3 625 -6 638 -14 51 -22 52 -584 52 -562 0 -562
0 -592 -53 -10 -17 -14 -174 -18 -695 l-5 -674 -24 -19 c-36 -29 -131 -27
-168 5 l-28 24 -3 782 c-2 535 1 787 8 795 6 7 47 18 92 25 106 15 227 60 308
114 36 24 70 41 75 38 6 -3 31 -21 56 -39z m695 -471 c42 -23 44 -49 44 -639
0 -597 -1 -617 -47 -641 -27 -15 -45 -15 -431 -14 l-354 2 -29 29 -29 29 0
586 c0 628 0 629 51 650 38 16 766 14 795 -2z m1404 -257 c109 -26 222 -89
304 -169 85 -83 134 -160 173 -271 25 -72 28 -94 28 -210 0 -110 -4 -141 -23
-200 -58 -174 -181 -319 -333 -394 -111 -54 -184 -72 -299 -72 -188 -1 -325
56 -466 196 -75 74 -99 105 -133 175 -53 110 -71 184 -71 291 0 184 64 333
200 469 96 97 184 149 302 180 90 23 229 25 318 5z"/>
<path d="M2049 2271 c-17 -13 -23 -29 -23 -56 0 -81 102 -106 140 -34 38 75
-51 144 -117 90z"/>
<path d="M4020 2460 l0 -59 -37 -6 c-156 -27 -223 -93 -223 -221 0 -76 21
-124 72 -164 30 -23 117 -63 161 -74 l27 -6 0 -137 0 -136 -67 6 c-38 3 -96
15 -130 25 l-63 20 0 -58 c0 -56 1 -58 33 -69 17 -7 76 -17 130 -23 l97 -12 0
-68 0 -68 40 0 39 0 3 71 3 71 65 17 c81 20 124 45 164 94 26 32 31 48 34 106
7 118 -33 168 -182 226 l-81 31 -3 132 -3 132 29 0 c24 0 71 -10 158 -36 19
-5 24 1 38 41 8 26 14 51 11 55 -7 11 -112 38 -177 46 l-58 6 0 59 0 59 -40 0
-40 0 0 -60z m0 -284 c0 -63 -4 -117 -8 -120 -5 -3 -32 6 -61 19 -58 27 -87
75 -76 125 10 46 67 88 123 89 22 1 22 -1 22 -113z m175 -309 c74 -41 81 -120
14 -169 -27 -20 -94 -40 -103 -30 -4 3 -6 57 -6 120 l0 114 28 -7 c15 -3 45
-16 67 -28z"/>
</g>
</svg>
