<?xml version="1.0" standalone="no"?>
<!DOCTYPE svg PUBLIC "-//W3C//DTD SVG 20010904//EN"
 "http://www.w3.org/TR/2001/REC-SVG-20010904/DTD/svg10.dtd">
<svg version="1.0" xmlns="http://www.w3.org/2000/svg"
 width="601.000000pt" height="601.000000pt" viewBox="0 0 601.000000 601.000000"
 preserveAspectRatio="xMidYMid meet">

<g transform="translate(0.000000,601.000000) scale(0.100000,-0.100000)"
fill="#000000" stroke="none">
<path d="M2555 4573 c-140 -20 -360 -95 -475 -163 -171 -100 -251 -186 -258
-277 -4 -52 -3 -55 35 -91 87 -83 498 -359 1446 -975 567 -367 614 -394 741
-418 81 -15 127 -11 334 31 289 58 498 83 662 78 78 -2 144 -9 156 -16 12 -6
45 -32 74 -56 69 -59 129 -74 190 -50 33 13 46 26 61 58 23 50 23 68 4 134
-20 68 -100 154 -208 225 -140 92 -704 443 -1204 750 -1216 747 -1200 737
-1305 762 -59 14 -183 18 -253 8z m290 -149 c63 -27 280 -158 1450 -872 514
-313 1006 -630 1057 -680 49 -47 78 -106 61 -123 -9 -9 -23 -1 -114 68 -60 47
-96 55 -264 60 -131 4 -177 1 -365 -27 -118 -17 -246 -38 -285 -46 -185 -40
-238 -47 -308 -36 -37 6 -95 23 -130 39 -34 16 -294 180 -577 363 -879 569
-1378 904 -1420 955 -12 14 -6 23 52 79 49 47 96 78 186 124 255 129 497 164
657 96z"/>
<path d="M1634 4051 c-41 -25 -66 -59 -158 -216 -88 -152 -130 -259 -147 -378
l-12 -86 -45 31 c-65 45 -149 68 -247 68 -285 0 -479 -209 -535 -575 -55 -358
149 -719 438 -775 121 -24 213 2 302 85 76 70 94 78 151 72 74 -9 170 -65 434
-251 127 -90 281 -195 344 -235 286 -179 550 -281 729 -281 125 0 265 64 327
150 65 89 39 92 230 -20 94 -54 179 -99 191 -100 47 -1 56 20 75 165 25 188
59 319 135 518 74 193 85 255 60 340 -22 75 -81 133 -222 217 -60 35 -512 334
-1004 663 -492 330 -907 605 -922 613 -38 19 -87 17 -124 -5z m142 -144 c33
-24 331 -226 664 -449 333 -224 682 -459 775 -523 94 -64 239 -158 324 -208
176 -105 235 -153 251 -203 17 -51 9 -87 -60 -269 -68 -177 -112 -335 -130
-468 l-12 -88 -42 24 c-505 287 -935 538 -1104 646 l-212 136 6 81 c6 80 6 81
-25 116 -40 46 -177 134 -361 233 -234 125 -327 201 -377 311 -65 144 -31 292
134 572 64 110 81 132 98 132 7 0 39 -19 71 -43z m-598 -592 c93 -51 132 -127
180 -351 37 -172 62 -240 112 -303 75 -94 782 -613 894 -656 52 -20 58 -18
147 57 25 21 48 38 52 38 8 0 528 -338 545 -355 11 -10 7 -18 -24 -44 -194
-159 -571 -31 -1154 394 -301 219 -434 292 -552 303 -80 7 -131 -15 -218 -93
-81 -72 -119 -84 -205 -65 -122 27 -223 111 -283 234 -49 100 -66 183 -65 316
1 184 53 337 150 441 88 94 152 120 278 116 77 -2 98 -7 143 -32z m437 -387
c39 -25 133 -78 210 -118 139 -73 244 -139 278 -177 15 -18 16 -28 7 -92 -6
-46 -7 -79 -1 -90 6 -10 91 -71 191 -136 l181 -117 -38 -34 c-21 -18 -42 -33
-47 -34 -41 -1 -775 532 -829 603 -41 53 -68 128 -102 281 l-6 29 43 -35 c24
-19 75 -55 113 -80z"/>
<path d="M915 3058 c-53 -35 -107 -112 -127 -183 -6 -22 -12 -74 -12 -115 0
-109 35 -171 117 -205 57 -23 103 -20 123 10 19 29 15 51 -27 147 -30 69 -38
135 -17 156 7 7 45 12 98 12 72 0 90 3 103 18 36 39 13 111 -49 159 -28 21
-50 28 -98 31 -56 4 -65 1 -111 -30z"/>
<path d="M4760 2625 c-58 -9 -193 -31 -300 -49 -107 -19 -228 -40 -269 -46
-86 -12 -137 -38 -168 -83 -23 -33 -149 -364 -201 -527 -42 -132 -56 -234 -43
-307 16 -87 33 -103 147 -142 126 -42 211 -44 454 -8 96 14 231 31 300 38 291
27 392 83 483 272 124 254 192 600 139 703 -68 133 -267 187 -542 149z m324
-129 c107 -33 132 -73 115 -193 -30 -215 -132 -490 -215 -583 -56 -62 -132
-83 -369 -105 -38 -4 -169 -20 -290 -36 -121 -17 -236 -27 -255 -24 -20 3 -65
17 -100 29 -54 20 -66 28 -72 52 -19 69 32 251 184 652 18 47 41 91 54 101 14
11 50 21 86 25 35 4 149 23 253 42 372 66 494 74 609 40z"/>
<path d="M4555 2341 c-161 -25 -199 -37 -254 -87 -57 -51 -101 -135 -136 -259
-39 -137 -42 -192 -13 -234 40 -60 80 -76 183 -75 91 1 352 43 435 69 63 21
111 63 148 132 36 69 92 265 92 326 0 52 -28 100 -72 124 -48 25 -229 27 -383
4z m313 -107 c13 -4 22 -14 22 -27 0 -26 -57 -222 -74 -255 -22 -42 -67 -79
-111 -91 -186 -48 -419 -71 -447 -43 -10 10 -9 29 10 99 45 176 109 274 188
289 147 27 359 42 412 28z"/>
</g>
</svg>
