<?xml version="1.0" standalone="no"?>
<!DOCTYPE svg PUBLIC "-//W3C//DTD SVG 20010904//EN"
 "http://www.w3.org/TR/2001/REC-SVG-20010904/DTD/svg10.dtd">
<svg version="1.0" xmlns="http://www.w3.org/2000/svg"
 width="601.000000pt" height="601.000000pt" viewBox="0 0 601.000000 601.000000"
 preserveAspectRatio="xMidYMid meet">

<g transform="translate(0.000000,601.000000) scale(0.100000,-0.100000)"
fill="#000000" stroke="none">
<path d="M1079 4749 c-87 -13 -149 -73 -169 -164 -7 -33 -10 -265 -8 -693 l3
-644 24 -19 c28 -23 60 -24 87 -5 18 14 19 36 24 679 6 780 -7 707 126 707
l83 0 3 -307 c3 -299 4 -310 27 -360 29 -65 91 -124 157 -149 47 -18 98 -19
1580 -19 l1530 0 59 30 c37 19 72 46 92 73 58 76 63 112 63 439 l0 293 79 0
c63 0 84 -4 102 -19 l24 -19 0 -784 0 -783 -24 -60 c-33 -80 -104 -155 -184
-191 -56 -25 -75 -28 -204 -32 l-143 -5 0 90 c0 127 -19 183 -83 248 -86 86
-82 85 -582 85 -406 0 -433 -1 -448 -18 -21 -23 -22 -71 -3 -98 14 -18 33 -19
448 -24 461 -5 457 -5 497 -56 18 -23 21 -41 21 -125 l0 -99 -405 0 c-392 0
-406 -1 -425 -20 -29 -29 -26 -74 6 -99 26 -21 35 -21 618 -21 352 0 617 4
656 10 174 28 302 141 371 331 l29 80 0 797 0 798 -33 54 c-24 41 -44 60 -82
80 l-50 25 -1910 0 c-1051 0 -1931 -3 -1956 -6z m3536 -162 c4 -13 5 -147 3
-299 -3 -261 -4 -278 -24 -304 -11 -15 -33 -37 -48 -48 -27 -21 -28 -21 -1540
-21 -1440 0 -1513 1 -1539 18 -16 10 -37 32 -47 50 -19 30 -20 52 -20 330 l0
297 1605 0 1605 0 5 -23z"/>
<path d="M1555 4454 c-26 -26 -16 -95 15 -111 20 -10 324 -13 1443 -13 l1418
0 24 25 c30 29 32 68 5 95 -20 20 -33 20 -1454 20 -1310 0 -1436 -1 -1451 -16z"/>
<path d="M1555 4174 c-26 -26 -16 -95 15 -111 20 -10 324 -13 1443 -13 l1418
0 24 25 c30 29 32 68 5 95 -20 20 -33 20 -1454 20 -1310 0 -1436 -1 -1451 -16z"/>
<path d="M1880 3615 c-456 -86 -825 -432 -940 -880 -83 -323 -22 -673 167
-958 26 -40 88 -114 138 -166 458 -475 1223 -482 1688 -17 388 388 465 998
184 1460 -167 275 -416 461 -726 543 -81 22 -123 26 -266 29 -118 2 -193 -1
-245 -11z m391 -140 c142 -24 305 -90 419 -168 79 -55 220 -199 276 -283 437
-657 30 -1528 -759 -1625 -315 -38 -652 87 -876 327 -246 262 -341 630 -252
975 135 525 662 867 1192 774z"/>
<path d="M2049 3271 c-22 -18 -24 -27 -27 -141 l-4 -122 -93 92 c-88 86 -96
91 -131 88 -29 -2 -42 -9 -53 -29 -25 -46 -7 -75 140 -224 l139 -141 0 -127
c0 -70 -4 -127 -8 -127 -23 0 -218 72 -234 86 -10 10 -56 91 -103 182 -47 91
-93 171 -103 178 -9 7 -27 14 -40 14 -28 0 -72 -42 -72 -68 0 -11 25 -69 55
-131 30 -62 55 -114 55 -116 0 -2 -48 12 -107 31 -60 18 -116 34 -126 34 -24
0 -67 -44 -67 -70 0 -37 43 -66 148 -101 56 -18 102 -36 102 -39 0 -3 -37 -24
-82 -45 -111 -55 -158 -89 -158 -119 0 -30 46 -76 76 -76 13 0 102 40 198 89
l175 90 121 -41 c74 -24 120 -45 117 -52 -11 -27 -132 -188 -149 -197 -10 -6
-101 -23 -201 -39 -100 -16 -189 -32 -198 -35 -46 -17 -48 -92 -4 -121 24 -15
34 -15 153 4 70 11 128 19 129 18 2 -2 -29 -47 -67 -100 -39 -54 -70 -106 -70
-116 0 -9 10 -29 21 -44 17 -22 28 -26 58 -24 32 3 42 12 103 93 37 50 70 89
75 88 4 -1 16 -51 25 -110 9 -59 22 -118 27 -130 14 -30 53 -45 86 -33 44 17
49 45 31 179 -9 67 -21 133 -26 147 -14 37 -12 119 4 158 8 19 34 58 58 88 23
29 50 64 59 77 15 24 15 24 89 -80 86 -120 83 -97 45 -343 -29 -185 -27 -208
21 -226 64 -25 86 8 113 164 11 65 22 120 23 122 2 1 30 -36 63 -83 70 -101
109 -127 153 -102 52 29 43 77 -33 183 -30 43 -55 81 -55 85 0 4 57 -1 126
-12 125 -19 127 -19 153 1 33 25 40 73 13 100 -20 20 -131 45 -280 62 -94 11
-137 27 -174 66 -25 28 -118 160 -118 169 0 7 218 75 241 75 12 0 95 -38 185
-85 172 -90 216 -102 247 -67 10 10 17 33 17 50 0 39 -36 67 -158 127 -45 21
-82 42 -82 45 0 4 48 22 107 41 82 26 111 40 127 61 25 35 14 77 -27 96 -26
12 -40 10 -140 -21 -62 -19 -113 -34 -115 -32 -1 1 22 53 53 115 30 62 55 121
55 132 0 25 -44 68 -68 68 -37 0 -65 -37 -156 -210 l-91 -175 -118 -39 c-65
-21 -120 -37 -122 -34 -2 2 -5 53 -6 113 -2 91 0 116 16 145 10 19 73 89 141
155 78 77 125 130 130 148 9 40 -22 81 -66 85 -31 3 -41 -4 -122 -87 -49 -50
-90 -91 -93 -91 -3 0 -5 51 -5 114 0 99 -3 117 -21 140 -25 31 -66 34 -100 7z"/>
<path d="M4357 3402 c-39 -42 -5 -122 50 -122 27 0 73 41 73 65 0 20 -19 57
-34 67 -21 14 -73 8 -89 -10z"/>
<path d="M4637 3402 c-39 -42 -5 -122 50 -122 31 0 73 43 73 75 0 56 -86 89
-123 47z"/>
<path d="M3587 2422 c-10 -10 -17 -26 -17 -36 0 -30 -30 -88 -66 -128 -53 -59
-74 -112 -74 -189 0 -80 15 -120 76 -194 25 -31 50 -69 55 -85 13 -36 -6 -84
-55 -137 -49 -55 -76 -117 -76 -180 0 -42 4 -55 22 -67 30 -21 71 -20 91 2 8
9 21 38 27 64 8 30 29 67 61 105 84 98 99 204 46 310 -14 26 -37 59 -52 73
-52 48 -69 110 -42 157 6 12 33 49 59 82 90 117 87 241 -6 241 -19 0 -40 -8
-49 -18z"/>
<path d="M4081 2426 c-6 -7 -18 -36 -26 -64 -9 -30 -33 -71 -57 -99 -58 -68
-78 -116 -78 -193 0 -76 23 -134 76 -193 76 -84 77 -142 3 -222 -101 -110
-107 -265 -10 -265 37 0 66 35 74 87 4 26 22 57 53 93 54 64 70 97 80 167 10
76 -15 147 -76 217 -79 91 -79 132 -1 226 47 56 81 133 81 182 0 22 -18 60
-34 70 -18 13 -73 9 -85 -6z"/>
<path d="M4497 2422 c-10 -10 -17 -26 -17 -36 0 -30 -30 -88 -66 -128 -53 -59
-74 -112 -74 -188 0 -69 29 -151 65 -180 27 -22 75 -101 75 -122 0 -28 -28
-77 -67 -122 -96 -107 -98 -256 -4 -256 37 0 66 35 74 87 4 26 23 58 57 98 52
61 80 129 80 190 0 56 -29 131 -68 176 -95 109 -96 137 -12 239 49 58 66 94
75 151 7 46 -4 85 -29 101 -21 14 -73 8 -89 -10z"/>
</g>
</svg>
