<?xml version="1.0" encoding="UTF-8"?>
<svg id="Capa_1" data-name="Capa 1" xmlns="http://www.w3.org/2000/svg" viewBox="0 0 552.96 594">
  <defs>
    <style>
      .cls-1 {
        fill: #1a3555;
      }
    </style>
  </defs>
  <path class="cls-1" d="M304.59,41.95c17.75,7.12,20.8,28.62,30,43.36,19.34,5.72,54.19.49,55.87,28.96.5,8.55-5.56,26.96-16.37,21.35-9.52-4.94,1.04-13.01,1.43-18.34.47-6.42-2.86-9.74-8.66-11.35-8.03-2.23-37.98-3.98-42.02-7.39l-19.78-38.6c-4.91-5.34-11.97-5.35-16.89,0l-19.78,38.6c-4.69,3.96-35.4,4.7-44.37,8.08-7.51,2.83-7.92,12.01-2.91,17.81,7.16,8.29,20.83,17.45,27.14,26.25,1.56,2.17,2.25,3.47,2.2,6.25-.22,11.51-7.48,29.46-6.79,40.19.57,8.91,8.21,11.48,15.71,8.67,8.41-3.15,30.52-17.94,36.77-18.21,9.13-.39,34.81,20.66,43.65,19.83,5.68-.53,9.75-5.68,9.81-11.26.13-11.9-6.71-27.99-6.63-40.49,1.66-6.74,12.36-17.71,19.08-10.98,6.18,6.18-3.29,11.81-3.55,14.54,1.53,18.72,14.17,43.71-4.08,57.78-19.4,14.96-39.2-6.25-57.29-13.34-18.71,6.43-38.31,28.11-58.31,13.35-18.62-13.74-4.88-40.01-4.24-58.57-12.36-15.83-38.34-26.57-30.5-50.85,7.07-21.89,37.14-16.51,54.56-22.29,9.78-14.61,11.83-36.14,30-43.36h15.97Z"/>
  <path class="cls-1" d="M296.6,335.36l38.38,3.05,11.51-.55,52.49-77.26c15.12-20.08,43.61-18.12,56.84,2.91,16.96-14.98,42.01-15.41,54.78,5.07,14.11,22.64-2.49,40.23-16.87,55.82-28.36,30.73-58.38,60.14-87.33,90.32-9.03,7.07-18.86,12-29.96,14.96l-189.67,48.92-.73.94c7.77,18.75,3.88,41.88-14.88,52.27-7.53,4.17-56.6,19.74-64.66,20.17-18.78,1.02-32.72-9.88-38.74-27.2s-12.62-46.18-16.19-64.65c-.46-2.4-1.72-6.05-1.33-8.26,1.15-6.51,11.19-8.1,14.05-2.46l18.71,73.11c5.37,13.52,15.56,16.08,29,12.99,10.29-2.37,43.69-12.29,51.89-16.97,8.96-5.11,12.15-13.89,10.87-23.9l-36.81-131.92c-20.99,4.78-44.5,7.19-65.11,12.86-10.03,2.76-19.89,8.92-20.53,20.48-.46,8.28,8.51,26.62,3.34,32.2-3.17,3.43-9.48,2.58-11.77-1.35-1.9-3.26-6.42-22.89-6.74-27.18-3.72-48.97,71.43-41.29,102.54-53.13,23.25-21.08,42.88-54.2,73.12-65.61,11.94-4.5,26.19-6.51,38.67-10.24,22.35-6.69,58.85-28.84,72.83,2.5,10.83,24.28-13.08,45.6-27.68,62.1ZM439.96,266.87c-2.69-2.68-8.22-5.22-12.09-5.43-13.1-.7-18.23,10.25-24.7,19.32-11.96,16.77-27.27,37.83-37.52,55.3-.65,1.11-1.52,1.81-1.17,3.31,3.99-1.21,8.05-1.95,11.95-3.51,16.42-6.58,49.55-42.32,63.36-56.4,3-3.06,5.83-1.85,3.59-7.51-.52-1.32-2.41-4.06-3.42-5.07ZM181.89,464.08l197.81-51.1c15.16-5.63,25.66-17.97,36.69-29.18,26.72-27.13,51.73-56.07,78.8-82.89,15.53-16.59-2.31-41.18-22.61-30.6-11.52,6-37.42,35.5-48.7,46.12-26.12,24.57-36.48,39.43-75.87,37.89-20.31-.8-48.9-2.2-68.62-5.24-7.25-1.12-10.3-4.02-8.22-11.7,12.89-13.42,34.12-28.4,40.17-46.65,3.79-11.44-6.16-20.92-17.79-18.78-8.5,1.56-21.04,7.94-30.12,10.79-24.01,7.54-50.59,9.11-69.16,27.65l-42.17,45.56,29.78,108.13Z"/>
  <path class="cls-1" d="M109.7,187.91c20.28-3.45,22.48,17.59,33.3,28.1,9.65,9.36,26.43,10.91,27.26,27.4.83,16.54-14.43,18.56-24.38,26.59-13.81,11.13-14.75,34.81-37.19,30.23-11.27-2.3-15.55-18.44-22.66-26.24-9.57-10.5-28.28-12.15-28.99-28.97-.7-16.55,15.19-18.8,24.99-26.89,10.65-8.79,14.4-27.95,27.67-30.21ZM154.58,247.24c4.77-6.18-10.63-11.81-14.41-14.44-6.06-4.23-10.24-8.44-14.46-14.48-3.02-4.31-9.16-20.58-15.5-14.43-2.37,2.3-6.63,12.57-9.82,16.62-2.08,2.66-6.28,6.92-8.88,9.09-4.93,4.14-14.75,7.9-17.75,10.91-2.06,2.06-2.54,4.93-.28,7.08,4.03,3.85,13.54,7.2,19.03,11.9,2.16,1.85,5.08,4.87,6.88,7.09,3.55,4.4,7.84,14.75,10.51,17.44,1.5,1.51,5.08,2.25,6.84,1.23.77-.45,7.18-13.03,8.95-15.49,3.71-5.16,8.88-10.2,14.07-13.87,2.95-2.08,13.56-7.05,14.8-8.66Z"/>
  <path class="cls-1" d="M460.01,135.99c17.88-3.7,18.96,12.83,27.68,21.77,7.11,7.28,21.26,9.11,22.53,21.41,1.69,16.41-13.87,17.54-22.52,26.43-7.16,7.37-9.38,21.1-21.95,22.01-15.32,1.11-16.38-12.42-23.92-21-8.87-10.08-27.05-10.8-23.24-29.21,2.3-11.1,14.91-12.49,21.76-19.15,6.79-6.6,8.76-20.01,19.65-22.26ZM465.25,150.74l-2.06.63c-7.07,13.23-16.41,22.57-29.86,29.32-.97,1.42,12.9,9.69,14.45,10.98,7,5.81,10.31,13.17,16.09,19.9,2.27.48,8.49-11.09,10.4-13.41,6.23-7.56,13.86-10.62,20.93-16.99-13.03-7.59-23.5-16.38-29.96-30.43Z"/>
  <path class="cls-1" d="M119.69,468.35c39.44-6.69,41.35,51.13,5.11,50.07-30.86-.91-32.14-45.48-5.11-50.07ZM118.3,500.71c9.68,9.58,24.9-6.28,14.15-15.65-9.66-8.43-23.95,5.96-14.15,15.65Z"/>
  <path class="cls-1" d="M118.3,500.71c-9.8-9.7,4.49-24.08,14.15-15.65,10.75,9.37-4.47,25.23-14.15,15.65Z"/>
</svg>