<?xml version="1.0" encoding="UTF-8"?>
<svg id="Capa_1" data-name="Capa 1" xmlns="http://www.w3.org/2000/svg" viewBox="0 0 552.96 594">
  <defs>
    <style>
      .cls-1 {
        fill: #1a3555;
      }
    </style>
  </defs>
  <path class="cls-1" d="M297.9,58.3c113,9.03,179.35,130.64,121.5,230.73l-51.42,80.38c.07,1.34,21.06,4.65,24.12,5.35,32.83,7.51,93.26,25.03,102.61,62.39,12.63,50.46-65.43,74.52-101.85,82.52-51.21,11.24-108.72,13.29-160.85,7.82-41.05-4.31-130.47-21.22-147.48-64.53-19.06-48.55,49.02-74.83,84.32-84.34,11.78-3.17,27.59-4.39,38.22-7.87.95-.31,1.72-.27,2.33-1.33l-57-90.47c-48.33-97.63,19.62-213.35,127.08-220.64h18.44ZM289.58,441.76l110.19-174.19c46.47-94.65-35.26-201.51-139.5-178.22-78.11,17.46-119.16,107.91-82.38,178.83l109.79,173.01,1.9.57ZM223.99,395.87c-10.58.23-30.47,5.01-41.32,7.63-18.08,4.37-69.08,20.42-73.33,40.98-2.69,13.04,17.05,25.2,26.95,30.3,71.87,37.02,222.19,35.88,295.89,4.01,10.72-4.63,34.21-16.87,36.05-29.43,1.9-12.94-19.06-25.57-28.95-30.53-26.53-13.32-58.16-18.54-87.29-23.03l-52.27,80.51c-5.82,7.33-17.1,6.99-22.48-.52l-51.25-79.71c-.64-.51-1.31-.23-2-.21Z"/>
  <path class="cls-1" d="M282.04,142.46c60.91-5.53,99.46,65.89,59.65,113.12-28.09,33.32-78.66,33.04-106.45-.5-35.12-42.39-7.49-107.69,46.8-112.62ZM284.8,170.11c-57.83,5.41-43.48,95.33,14.05,81.33,48.48-11.8,36.71-86.08-14.05-81.33Z"/>
</svg>