<?xml version="1.0" encoding="UTF-8"?>
<svg id="Capa_1" data-name="Capa 1" xmlns="http://www.w3.org/2000/svg" viewBox="0 0 552.96 594">
  <defs>
    <style>
      .cls-1 {
        fill: #1a3555;
      }
    </style>
  </defs>
  <path class="cls-1" d="M510.64,162.29v21.08l-5.49,24.71c-15.9,47.75-62.79,80.55-113.55,77.81v184.44c0,29.17-34.01,58.49-62.83,57.05-80.78-3.61-165.53,4.64-245.85,0-21.04-1.22-39.75-9.14-52.11-26.56-6.42-9.06-9.35-18.28-11.68-29.06v-45.03c1.02-1.17,3.9-4.79,5.28-4.79h59.04c.91-92.36,1.63-184.93,1.88-277.42.05-3.64,1.26-7.01,4.48-8.94l201.37-1.02c14.04-38.72,50.3-68.22,91.43-73.71,55.55-7.42,108.74,27.76,123.72,81.32l4.32,20.12ZM389.49,76.34c-77.39,6.3-116.87,98.11-66.98,158.26,49.41,59.57,146.98,40.28,168.23-34.21,18.73-65.65-33.03-129.59-101.25-124.04ZM286.96,150.79H101.68l-1.92,271.15h177.12c2.66,0,4.85,4.86,5.19,7.27,2.9,20.57-5.22,40.47,6.98,60.1,23.35,37.58,82.75,23.48,86.26-20.87l-.16-183.87-1.5-1.38c-29.21-6.13-54.63-24.3-71.02-48.89l-84.26-.22c-6.64-.69-9.88-8.59-5.39-13.61.48-.54,4.11-2.62,4.36-2.62h76.32c-5.87-14.68-8.63-29.61-9.5-45.41l2.78-21.66ZM265.84,437.27H35.44v35.93c0,15.06,24.82,37.85,39.84,37.85h211.68c-7.52-6.89-13.81-15.64-17.3-25.37-1.26-3.49-3.82-12.03-3.82-15.35v-33.06Z"/>
  <path class="cls-1" d="M330.85,370.89c-1.41,1.41-4.86,2.05-6.88,2.24-33.21,3.01-70.99-2.36-104.69-.05-12.08-1.01-10.5-15.65.96-16.29,32.8,2.72,71.58-3.64,103.68,0,7.07.8,12.9,8.13,6.93,14.1Z"/>
  <path class="cls-1" d="M216.61,288.01l109.26-.23c9.71.96,9.72,14.41,0,15.37l-108.55.03c-7.89-1.02-8.44-13.23-.71-15.17Z"/>
  <path class="cls-1" d="M165.81,201.81c34.53-2.71,36.43,49.03,2.54,49.61-32.27.55-35.4-47.03-2.54-49.61ZM164.77,218.06c-10.52,2.36-7.73,20.31,6.06,16.59,11.32-3.05,6.72-19.46-6.06-16.59Z"/>
  <path class="cls-1" d="M166.79,270.78c33.84-1.31,34.88,49.03,1.61,49.67-33.41.65-34.55-48.4-1.61-49.67ZM165.76,287.05c-12.63,2.07-8.2,21,6.05,16.6,9.31-2.87,6.42-18.64-6.05-16.6Z"/>
  <path class="cls-1" d="M185.82,382.31c-27.17,25.78-63.58-20.82-30.89-38.98,26.03-14.46,51.68,19.25,30.89,38.98ZM165.75,356.03c-12.78,2.47-7.98,20.94,6.06,16.61,9.54-2.94,6.02-18.95-6.06-16.61Z"/>
  <path class="cls-1" d="M404.21,114.25c14.13,2.72,28.07,18.59,26.8,33.18-.72,8.26-11.63,10.99-15.19,3.61-2.72-5.64.14-10.01-5.94-16.1-19.06-19.1-44.52,14.27-21.84,27.54,6.32,3.7,13.26,2.15,20.4,4.55,32.02,10.77,28.74,57.87-4.26,64.33,3.56,21.92-19.29,22.3-15.62.06-8.63-2.59-16.83-8.76-21.13-16.75-4.01-7.45-7.96-25.59,5.39-23.6,9.83,1.46,3.18,18.48,17.3,23.95,16.37,6.34,31.42-11.58,22.09-25.87-6.68-10.24-16.6-6.99-26.33-10.13-26.05-8.41-30.2-45.12-7.25-59.88,1.89-1.21,9.36-4.28,9.66-4.73,2.17-3.2-2.97-15.92,8.58-15.44,8.46.36,7.28,9.25,7.35,15.27Z"/>
</svg>